<mxfile host="app.diagrams.net" modified="2024-05-29T02:15:31.865Z" agent="Mozilla/5.0 (X11; Linux x86_64) AppleWebKit/537.36 (KHTML, like Gecko) Chrome/124.0.0.0 Safari/537.36" etag="ujTDovlxtbVbJomkptlX" version="24.4.9" type="github">
  <diagram name="第 1 页" id="xdLWtnlXztVk6JaeF0jy">
    <mxGraphModel dx="1036" dy="526" grid="1" gridSize="10" guides="1" tooltips="1" connect="1" arrows="1" fold="1" page="1" pageScale="1" pageWidth="827" pageHeight="1169" math="0" shadow="0">
      <root>
        <mxCell id="0" />
        <mxCell id="1" parent="0" />
        <mxCell id="LNC6WIRuFT76nc8-cBKx-1" value="target label: 0" style="text;html=1;align=center;verticalAlign=middle;whiteSpace=wrap;rounded=0;" vertex="1" parent="1">
          <mxGeometry x="200" y="180" width="120" height="30" as="geometry" />
        </mxCell>
        <mxCell id="LNC6WIRuFT76nc8-cBKx-2" value="Backdoor trigger:" style="text;html=1;align=center;verticalAlign=middle;whiteSpace=wrap;rounded=0;" vertex="1" parent="1">
          <mxGeometry x="340" y="180" width="110" height="30" as="geometry" />
        </mxCell>
      </root>
    </mxGraphModel>
  </diagram>
</mxfile>
